<svg width="883" height="190" viewBox="0 0 883 190" fill="none" xmlns="http://www.w3.org/2000/svg">
<g clip-path="url(#clip0_1_75)">
<path fill-rule="evenodd" clip-rule="evenodd" d="M808.06 79.3192C828.123 79.3192 844.382 95.5696 844.382 115.632C844.382 135.695 828.123 151.945 808.06 151.945C787.998 151.945 771.747 135.695 771.747 115.632C771.747 95.5696 788.007 79.3192 808.06 79.3192ZM808.06 40.6924C849.444 40.6924 883 74.2482 883 115.632C883 142.477 868.868 166.023 847.653 179.26C839.24 166.023 824.452 157.247 807.608 157.247C790.764 157.247 776.278 165.846 767.82 178.852C746.959 165.545 733.12 142.211 733.12 115.632C733.12 74.2482 766.676 40.6924 808.06 40.6924Z" fill="white"/>
<path fill-rule="evenodd" clip-rule="evenodd" d="M428.645 78.929C448.699 78.929 464.967 95.1882 464.967 115.251C464.967 135.313 448.708 151.564 428.645 151.564C408.583 151.564 392.332 135.304 392.332 115.251C392.332 95.1971 408.591 78.929 428.645 78.929ZM428.645 40.311C470.029 40.311 503.585 73.8668 503.585 115.251V186.29H472.077C464.993 169.029 448.016 156.865 428.193 156.865C411.526 156.865 396.862 165.465 388.405 178.47C367.544 165.163 353.714 141.821 353.714 115.251C353.714 73.8668 387.261 40.311 428.654 40.311H428.645Z" fill="white"/>
<path fill-rule="evenodd" clip-rule="evenodd" d="M652.737 93.9297C652.684 111.244 652.649 129.702 652.649 147.025C652.649 170.075 671.452 188.87 694.494 188.87H719.29V150.731H705.106C691.107 149.082 690.877 136.945 690.877 129.728V93.9297H652.737Z" fill="white"/>
<path fill-rule="evenodd" clip-rule="evenodd" d="M690.868 41.8804V35.4174V29.8499V18.9897V13.6084H653.039V35.4174L652.994 41.8804H652.879V62.1911L652.791 80.1082H690.868H719.29V41.8804H690.868Z" fill="white"/>
<path fill-rule="evenodd" clip-rule="evenodd" d="M581.521 189.641C618.721 189.641 639.9 172.85 639.9 143.399C639.9 106.723 607.355 102.591 583.33 98.4512C577.124 97.6799 556.467 95.3482 556.467 85.7913C556.467 78.8141 567.576 75.2059 575.067 75.2059C590.821 75.2059 604.775 82.183 615.361 88.38L635.512 62.0318C616.912 48.0776 598.835 41.6235 576.353 41.6235C562.664 41.6235 517.716 44.9835 517.716 86.5803C517.716 122.228 554.659 127.911 574.03 131.271C581.521 132.565 601.415 133.594 601.415 143.16C601.415 150.385 592.896 155.811 581.007 155.811C563.959 155.811 546.139 148.062 535.022 140.571L514.871 167.433C530.376 179.827 551.042 189.65 581.512 189.65" fill="white"/>
<path fill-rule="evenodd" clip-rule="evenodd" d="M340.301 186.281H302.064L302.552 13.3957L340.274 0L340.301 186.281Z" fill="white"/>
<path fill-rule="evenodd" clip-rule="evenodd" d="M66.6505 189.641C103.85 189.641 125.03 172.85 125.03 143.399C125.03 106.723 92.4845 102.591 68.4591 98.4511C62.2621 97.6799 41.5967 95.3482 41.5967 85.7913C41.5967 78.8141 52.7052 75.2059 60.1965 75.2059C75.9504 75.2059 89.9046 82.183 100.499 88.38L120.65 62.0318C102.05 48.0776 83.9737 41.6235 61.4908 41.6235C47.8026 41.6235 2.85468 44.9835 2.85468 86.5803C2.85468 122.228 39.7971 127.911 59.1681 131.271C66.6594 132.565 86.5535 133.594 86.5535 143.16C86.5535 150.385 78.0249 155.811 66.1452 155.811C49.0969 155.811 31.2685 148.062 20.1601 140.571L0 167.424C15.4968 179.818 36.1711 189.641 66.6505 189.641Z" fill="white"/>
<path fill-rule="evenodd" clip-rule="evenodd" d="M213.932 78.9292C233.995 78.9292 250.245 95.1885 250.245 115.251C250.245 135.314 233.986 151.564 213.932 151.564C193.879 151.564 177.62 135.305 177.62 115.251C177.62 95.1973 193.879 78.9292 213.932 78.9292ZM213.932 40.3113C255.316 40.3113 288.872 73.867 288.872 115.251V186.29H257.364C254.855 180.182 251.114 174.712 246.433 170.19L246.194 169.96L246.025 169.809L245.618 169.428L245.573 169.384L245.201 169.047L244.784 168.674L244.501 168.417L244.368 168.302L243.942 167.947L243.632 167.681L243.517 167.584L243.082 167.229L242.745 166.963L242.648 166.883L242.204 166.538L241.841 166.263L241.761 166.21L241.309 165.873L241.176 165.775L240.857 165.545L240.396 165.226H240.378L239.642 164.72L239.314 164.508L238.561 164.029L238.516 164.002L238.038 163.71L237.559 163.417L237.071 163.133L237.045 163.116L236.832 163L236.087 162.584L236.043 162.557L235.094 162.061L235.023 162.025L234.917 161.972L234.137 161.591L234.084 161.564L233.995 161.52L233.88 161.467L233.135 161.121L233.064 161.085L232.949 161.032L232.55 160.855L232.027 160.633L231.592 160.447L231.513 160.412L230.99 160.199L230.821 160.128L230.467 159.986L229.935 159.791L229.74 159.72L229.598 159.667L228.862 159.41L228.64 159.339L228.587 159.321C227.958 159.108 227.328 158.913 226.69 158.727L226.415 158.647L225.591 158.417L225.289 158.337L225.032 158.275L224.473 158.142L224.137 158.062L223.906 158.009L223.339 157.885L222.975 157.805H222.958C222.328 157.672 221.699 157.557 221.06 157.451L220.635 157.389L220.484 157.362C219.801 157.264 219.119 157.176 218.427 157.105L218.259 157.087H218.152L217.567 157.025L217.062 156.981H216.982L215.856 156.901H215.794L214.748 156.857H214.633H214.606H213.409H212.301H212.097L211.078 156.901H210.971L210.315 156.954L209.766 156.99L209.544 157.007L208.782 157.069L208.56 157.096H208.445L207.372 157.229H207.266L206.237 157.389L206.131 157.406L205.014 157.592L203.977 157.787L203.852 157.814L203.542 157.885L202.806 158.045L202.709 158.071L202.079 158.222L201.556 158.346L201.352 158.399L200.634 158.594L200.43 158.656L199.916 158.807L199.313 158.984L199.207 159.02L198.258 159.33L198.134 159.374L197.425 159.623L197.106 159.729L196.414 159.986L195.767 160.243H195.723L195.04 160.536L194.455 160.793L194.366 160.828L193.888 161.032L193.693 161.121L193.028 161.431L192.842 161.52L192.372 161.75L192.274 161.804L191.724 162.078L191.077 162.415L190.802 162.566L190.43 162.77L189.801 163.125L189.171 163.497L189.091 163.541C188.515 163.887 187.93 164.25 187.363 164.623L187.274 164.676L186.715 165.057L186.122 165.474L185.634 165.82L185.528 165.899L185.031 166.263L184.942 166.325L184.366 166.768L184.313 166.813L183.808 167.211L183.249 167.664L182.699 168.133L182.611 168.204L182.15 168.603L181.609 169.091L181.104 169.552L181.05 169.596L180.545 170.075L180.031 170.58L180.013 170.598L179.57 171.05L179.481 171.148L179.029 171.626L178.533 172.15L178.515 172.167L178.045 172.681L177.566 173.222L177.096 173.781L177.07 173.816L176.644 174.339L176.192 174.907L176.13 174.986L175.749 175.483L175.439 175.882L175.315 176.059L174.889 176.644L174.064 177.841L173.666 178.444C152.805 165.137 138.975 141.794 138.975 115.224C138.975 73.8404 172.522 40.2847 213.906 40.2847L213.932 40.3113Z" fill="white"/>
</g>
<defs>
<clipPath id="clip0_1_75">
<rect width="883" height="189.641" fill="white"/>
</clipPath>
</defs>
</svg>
